<svg width="138" height="33" viewBox="0 0 138 33" fill="none" xmlns="http://www.w3.org/2000/svg">
<mask id="path-1-inside-1_65_3" fill="white">
<path d="M3.04631 15.3204C4.72879 12.1372 8.67316 10.9207 11.8563 12.6032C15.0394 14.2857 16.256 18.23 14.5735 21.4132C12.891 24.5963 8.94665 25.8128 5.76351 24.1304C2.58036 22.4479 1.36384 18.5035 3.04631 15.3204ZM11.4869 19.7817C12.2683 18.3033 11.7033 16.4713 10.2248 15.6898C8.74639 14.9084 6.9144 15.4734 6.13296 16.9518C5.35152 18.4303 5.91654 20.2623 7.39498 21.0437C8.87342 21.8252 10.7054 21.2601 11.4869 19.7817Z"/>
</mask>
<path d="M3.04631 15.3204C4.72879 12.1372 8.67316 10.9207 11.8563 12.6032C15.0394 14.2857 16.256 18.23 14.5735 21.4132C12.891 24.5963 8.94665 25.8128 5.76351 24.1304C2.58036 22.4479 1.36384 18.5035 3.04631 15.3204ZM11.4869 19.7817C12.2683 18.3033 11.7033 16.4713 10.2248 15.6898C8.74639 14.9084 6.9144 15.4734 6.13296 16.9518C5.35152 18.4303 5.91654 20.2623 7.39498 21.0437C8.87342 21.8252 10.7054 21.2601 11.4869 19.7817Z" stroke="#9685FF" stroke-width="8" mask="url(#path-1-inside-1_65_3)"/>
<mask id="path-2-inside-2_65_3" fill="white">
<path d="M14.5737 11.8564C12.8912 15.0395 8.94684 16.2561 5.76369 14.5736C2.58055 12.8911 1.36402 8.94673 3.0465 5.76359C4.72898 2.58045 8.67334 1.36392 11.8565 3.0464C15.0396 4.72888 16.2562 8.67324 14.5737 11.8564ZM6.13314 7.39506C5.3517 8.8735 5.91673 10.7055 7.39517 11.4869C8.8736 12.2684 10.7056 11.7033 11.487 10.2249C12.2685 8.74648 11.7035 6.91448 10.225 6.13304C8.74658 5.3516 6.91458 5.91663 6.13314 7.39506Z"/>
</mask>
<path d="M14.5737 11.8564C12.8912 15.0395 8.94684 16.2561 5.76369 14.5736C2.58055 12.8911 1.36402 8.94673 3.0465 5.76359C4.72898 2.58045 8.67334 1.36392 11.8565 3.0464C15.0396 4.72888 16.2562 8.67324 14.5737 11.8564ZM6.13314 7.39506C5.3517 8.8735 5.91673 10.7055 7.39517 11.4869C8.8736 12.2684 10.7056 11.7033 11.487 10.2249C12.2685 8.74648 11.7035 6.91448 10.225 6.13304C8.74658 5.3516 6.91458 5.91663 6.13314 7.39506Z" stroke="#9685FF" stroke-width="8" mask="url(#path-2-inside-2_65_3)"/>
<mask id="path-3-inside-3_65_3" fill="white">
<path d="M8.80207 11.8394C10.0914 11.8379 11.3523 12.2187 12.4252 12.9338C13.4982 13.6488 14.335 14.666 14.8298 15.8566C15.3247 17.0472 15.4554 18.3578 15.2053 19.6227C14.9553 20.8876 14.3358 22.05 13.4252 22.9628C12.5146 23.8756 11.3537 24.4979 10.0894 24.751C8.82512 25.004 7.51418 24.8765 6.32237 24.3845C5.13056 23.8925 4.1114 23.0582 3.39377 21.987C2.67615 20.9157 2.29229 19.6558 2.29074 18.3664L5.78203 18.3622C5.78275 18.9611 5.96103 19.5463 6.29434 20.0438C6.62764 20.5413 7.101 20.9289 7.65455 21.1574C8.2081 21.3859 8.81697 21.4451 9.40418 21.3276C9.99139 21.21 10.5306 20.921 10.9535 20.4971C11.3765 20.0731 11.6642 19.5332 11.7803 18.9457C11.8964 18.3582 11.8357 17.7495 11.6059 17.1965C11.3761 16.6435 10.9874 16.1711 10.4891 15.839C9.99075 15.5069 9.40512 15.33 8.80627 15.3307L8.80207 11.8394Z"/>
</mask>
<path d="M8.80207 11.8394C10.0914 11.8379 11.3523 12.2187 12.4252 12.9338C13.4982 13.6488 14.335 14.666 14.8298 15.8566C15.3247 17.0472 15.4554 18.3578 15.2053 19.6227C14.9553 20.8876 14.3358 22.05 13.4252 22.9628C12.5146 23.8756 11.3537 24.4979 10.0894 24.751C8.82512 25.004 7.51418 24.8765 6.32237 24.3845C5.13056 23.8925 4.1114 23.0582 3.39377 21.987C2.67615 20.9157 2.29229 19.6558 2.29074 18.3664L5.78203 18.3622C5.78275 18.9611 5.96103 19.5463 6.29434 20.0438C6.62764 20.5413 7.101 20.9289 7.65455 21.1574C8.2081 21.3859 8.81697 21.4451 9.40418 21.3276C9.99139 21.21 10.5306 20.921 10.9535 20.4971C11.3765 20.0731 11.6642 19.5332 11.7803 18.9457C11.8964 18.3582 11.8357 17.7495 11.6059 17.1965C11.3761 16.6435 10.9874 16.1711 10.4891 15.839C9.99075 15.5069 9.40512 15.33 8.80627 15.3307L8.80207 11.8394Z" stroke="#090522" stroke-width="8" mask="url(#path-3-inside-3_65_3)"/>
<mask id="path-4-inside-4_65_3" fill="white">
<path d="M8.80268 15.3291C7.51331 15.3277 6.25333 14.9439 5.18208 14.2264C4.11082 13.5088 3.2764 12.4897 2.78433 11.2979C2.29227 10.1061 2.16466 8.7952 2.41764 7.53089C2.67062 6.26659 3.29283 5.10569 4.20559 4.195C5.11835 3.28432 6.28065 2.66475 7.54553 2.41464C8.81041 2.16454 10.1211 2.29513 11.3117 2.78991C12.5024 3.28468 13.5196 4.12141 14.2347 5.1943C14.9498 6.26719 15.3307 7.52803 15.3293 8.8174L11.838 8.81343C11.8386 8.21457 11.6617 7.62896 11.3296 7.13065C10.9974 6.63234 10.525 6.24371 9.97199 6.01391C9.41898 5.78411 8.81024 5.72345 8.22276 5.83962C7.63527 5.95578 7.09543 6.24355 6.67149 6.66652C6.24755 7.08949 5.95856 7.62868 5.84106 8.2159C5.72356 8.80312 5.78283 9.41199 6.01138 9.96553C6.23992 10.5191 6.62747 10.9924 7.12503 11.3257C7.62258 11.6589 8.20779 11.8372 8.80665 11.8379L8.80268 15.3291Z"/>
</mask>
<path d="M8.80268 15.3291C7.51331 15.3277 6.25333 14.9439 5.18208 14.2264C4.11082 13.5088 3.2764 12.4897 2.78433 11.2979C2.29227 10.1061 2.16466 8.7952 2.41764 7.53089C2.67062 6.26659 3.29283 5.10569 4.20559 4.195C5.11835 3.28432 6.28065 2.66475 7.54553 2.41464C8.81041 2.16454 10.1211 2.29513 11.3117 2.78991C12.5024 3.28468 13.5196 4.12141 14.2347 5.1943C14.9498 6.26719 15.3307 7.52803 15.3293 8.8174L11.838 8.81343C11.8386 8.21457 11.6617 7.62896 11.3296 7.13065C10.9974 6.63234 10.525 6.24371 9.97199 6.01391C9.41898 5.78411 8.81024 5.72345 8.22276 5.83962C7.63527 5.95578 7.09543 6.24355 6.67149 6.66652C6.24755 7.08949 5.95856 7.62868 5.84106 8.2159C5.72356 8.80312 5.78283 9.41199 6.01138 9.96553C6.23992 10.5191 6.62747 10.9924 7.12503 11.3257C7.62258 11.6589 8.20779 11.8372 8.80665 11.8379L8.80268 15.3291Z" stroke="#090522" stroke-width="8" mask="url(#path-4-inside-4_65_3)"/>
<rect x="8.25989" y="12.0229" width="1.62997" height="3.25994" transform="rotate(3.86895 8.25989 12.0229)" fill="#090522"/>
<path d="M30.562 11.878L23.126 29.698H20.53L22.994 23.802L18.22 11.878H21.014L24.424 21.118L27.966 11.878H30.562ZM39.4507 11.68C40.404 11.68 41.2547 11.878 42.0027 12.274C42.7654 12.67 43.3594 13.2567 43.7847 14.034C44.21 14.8113 44.4227 15.75 44.4227 16.85V24H41.9367V17.224C41.9367 16.1387 41.6654 15.31 41.1227 14.738C40.58 14.1513 39.8394 13.858 38.9007 13.858C37.962 13.858 37.214 14.1513 36.6567 14.738C36.114 15.31 35.8427 16.1387 35.8427 17.224V24H33.3347V11.878H35.8427V13.264C36.2534 12.7653 36.774 12.3767 37.4047 12.098C38.05 11.8193 38.732 11.68 39.4507 11.68ZM47.6658 17.928C47.6658 16.6813 47.9151 15.5887 48.4138 14.65C48.9271 13.6967 49.6311 12.9633 50.5258 12.45C51.4205 11.9367 52.4471 11.68 53.6058 11.68C55.0725 11.68 56.2825 12.032 57.2358 12.736C58.2038 13.4253 58.8565 14.4153 59.1938 15.706H56.4878C56.2678 15.1047 55.9158 14.6353 55.4318 14.298C54.9478 13.9607 54.3391 13.792 53.6058 13.792C52.5791 13.792 51.7578 14.1587 51.1418 14.892C50.5405 15.6107 50.2398 16.6227 50.2398 17.928C50.2398 19.2333 50.5405 20.2527 51.1418 20.986C51.7578 21.7193 52.5791 22.086 53.6058 22.086C55.0578 22.086 56.0185 21.448 56.4878 20.172H59.1938C58.8418 21.404 58.1818 22.3867 57.2138 23.12C56.2458 23.8387 55.0431 24.198 53.6058 24.198C52.4471 24.198 51.4205 23.9413 50.5258 23.428C49.6311 22.9 48.9271 22.1667 48.4138 21.228C47.9151 20.2747 47.6658 19.1747 47.6658 17.928ZM68.8432 11.68C69.7672 11.68 70.5885 11.878 71.3072 12.274C72.0405 12.67 72.6125 13.2567 73.0232 14.034C73.4485 14.8113 73.6612 15.75 73.6612 16.85V24H71.1752V17.224C71.1752 16.1387 70.9039 15.31 70.3612 14.738C69.8185 14.1513 69.0779 13.858 68.1392 13.858C67.2005 13.858 66.4525 14.1513 65.8952 14.738C65.3525 15.31 65.0812 16.1387 65.0812 17.224V24H62.5732V7.72H65.0812V13.286C65.5065 12.7727 66.0419 12.3767 66.6872 12.098C67.3472 11.8193 68.0659 11.68 68.8432 11.68ZM80.2483 13.638C80.615 13.022 81.099 12.5453 81.7003 12.208C82.3163 11.856 83.0423 11.68 83.8783 11.68V14.276H83.2403C82.2576 14.276 81.5096 14.5253 80.9963 15.024C80.4976 15.5227 80.2483 16.388 80.2483 17.62V24H77.7403V11.878H80.2483V13.638ZM92.3217 24.198C91.1777 24.198 90.1437 23.9413 89.2197 23.428C88.2957 22.9 87.5697 22.1667 87.0417 21.228C86.5137 20.2747 86.2497 19.1747 86.2497 17.928C86.2497 16.696 86.521 15.6033 87.0637 14.65C87.6063 13.6967 88.347 12.9633 89.2857 12.45C90.2243 11.9367 91.273 11.68 92.4317 11.68C93.5903 11.68 94.639 11.9367 95.5777 12.45C96.5163 12.9633 97.257 13.6967 97.7997 14.65C98.3423 15.6033 98.6137 16.696 98.6137 17.928C98.6137 19.16 98.335 20.2527 97.7777 21.206C97.2203 22.1593 96.4577 22.9 95.4897 23.428C94.5363 23.9413 93.4803 24.198 92.3217 24.198ZM92.3217 22.02C92.967 22.02 93.5683 21.866 94.1257 21.558C94.6977 21.25 95.1597 20.788 95.5117 20.172C95.8637 19.556 96.0397 18.808 96.0397 17.928C96.0397 17.048 95.871 16.3073 95.5337 15.706C95.1963 15.09 94.749 14.628 94.1917 14.32C93.6343 14.012 93.033 13.858 92.3877 13.858C91.7423 13.858 91.141 14.012 90.5837 14.32C90.041 14.628 89.6083 15.09 89.2857 15.706C88.963 16.3073 88.8017 17.048 88.8017 17.928C88.8017 19.2333 89.1317 20.2453 89.7917 20.964C90.4663 21.668 91.3097 22.02 92.3217 22.02ZM108.089 11.68C109.042 11.68 109.893 11.878 110.641 12.274C111.404 12.67 111.998 13.2567 112.423 14.034C112.848 14.8113 113.061 15.75 113.061 16.85V24H110.575V17.224C110.575 16.1387 110.304 15.31 109.761 14.738C109.218 14.1513 108.478 13.858 107.539 13.858C106.6 13.858 105.852 14.1513 105.295 14.738C104.752 15.31 104.481 16.1387 104.481 17.224V24H101.973V11.878H104.481V13.264C104.892 12.7653 105.412 12.3767 106.043 12.098C106.688 11.8193 107.37 11.68 108.089 11.68ZM118.416 10.272C117.961 10.272 117.58 10.118 117.272 9.81C116.964 9.502 116.81 9.12067 116.81 8.666C116.81 8.21133 116.964 7.83 117.272 7.522C117.58 7.214 117.961 7.06 118.416 7.06C118.856 7.06 119.23 7.214 119.538 7.522C119.846 7.83 120 8.21133 120 8.666C120 9.12067 119.846 9.502 119.538 9.81C119.23 10.118 118.856 10.272 118.416 10.272ZM119.648 11.878V24H117.14V11.878H119.648ZM122.985 17.884C122.985 16.6667 123.234 15.5887 123.733 14.65C124.246 13.7113 124.936 12.9853 125.801 12.472C126.681 11.944 127.649 11.68 128.705 11.68C129.658 11.68 130.487 11.8707 131.191 12.252C131.91 12.6187 132.482 13.0807 132.907 13.638V11.878H135.437V24H132.907V22.196C132.482 22.768 131.902 23.2447 131.169 23.626C130.436 24.0073 129.6 24.198 128.661 24.198C127.62 24.198 126.666 23.934 125.801 23.406C124.936 22.8633 124.246 22.1153 123.733 21.162C123.234 20.194 122.985 19.1013 122.985 17.884ZM132.907 17.928C132.907 17.092 132.731 16.366 132.379 15.75C132.042 15.134 131.594 14.6647 131.037 14.342C130.48 14.0193 129.878 13.858 129.233 13.858C128.588 13.858 127.986 14.0193 127.429 14.342C126.872 14.65 126.417 15.112 126.065 15.728C125.728 16.3293 125.559 17.048 125.559 17.884C125.559 18.72 125.728 19.4533 126.065 20.084C126.417 20.7147 126.872 21.1987 127.429 21.536C128.001 21.8587 128.602 22.02 129.233 22.02C129.878 22.02 130.48 21.8587 131.037 21.536C131.594 21.2133 132.042 20.744 132.379 20.128C132.731 19.4973 132.907 18.764 132.907 17.928Z" fill="#090522"/>
</svg>
